<?xml version="1.0" encoding="UTF-8" standalone="no"?>
<!-- Created with Inkscape (http://www.inkscape.org/) -->

<svg
   width="210mm"
   height="297mm"
   viewBox="0 0 210 297"
   version="1.1"
   id="svg1"
   xml:space="preserve"
   inkscape:version="1.4.2 (f4327f4, 2025-05-13)"
   sodipodi:docname="схемы.svg"
   xmlns:inkscape="http://www.inkscape.org/namespaces/inkscape"
   xmlns:sodipodi="http://sodipodi.sourceforge.net/DTD/sodipodi-0.dtd"
   xmlns:xlink="http://www.w3.org/1999/xlink"
   xmlns="http://www.w3.org/2000/svg"
   xmlns:svg="http://www.w3.org/2000/svg"><sodipodi:namedview
     id="namedview1"
     pagecolor="#ffffff"
     bordercolor="#000000"
     borderopacity="0.25"
     inkscape:showpageshadow="2"
     inkscape:pageopacity="0.0"
     inkscape:pagecheckerboard="0"
     inkscape:deskcolor="#d1d1d1"
     inkscape:document-units="mm"
     inkscape:zoom="1"
     inkscape:cx="238"
     inkscape:cy="803.5"
     inkscape:window-width="1920"
     inkscape:window-height="1017"
     inkscape:window-x="-8"
     inkscape:window-y="-8"
     inkscape:window-maximized="1"
     inkscape:current-layer="layer1" /><defs
     id="defs1"><linearGradient
       id="linearGradient111"
       inkscape:collect="always"><stop
         style="stop-color:#000000;stop-opacity:1;"
         offset="0"
         id="stop111" /><stop
         style="stop-color:#000000;stop-opacity:0;"
         offset="1"
         id="stop112" /></linearGradient><clipPath
       clipPathUnits="userSpaceOnUse"
       id="clipPath44"><path
         id="path45"
         style="fill:#ff0000;fill-opacity:1;fill-rule:nonzero;stroke:none;stroke-width:0.264583"
         d="m 143.94367,124.73399 v 6.34638 h 6.47867 v -6.34638 z m 3.29024,2.56573 c 0.0137,-10e-4 0.0288,0.0106 0.0341,0.0372 0.002,0.009 0.003,0.0185 0.005,0.0279 h 5.3e-4 5.3e-4 c 0.0136,-0.002 0.0291,0.009 0.0357,0.0357 0.002,0.006 0.003,0.0121 0.005,0.0181 0.0154,0.002 0.0283,0.0193 0.0217,0.0491 -6e-5,2.5e-4 4e-5,0.001 0,0.002 -6e-5,5.3e-4 -2.6e-4,0.002 -5.3e-4,0.003 8e-4,0.002 0.002,0.004 0.003,0.006 0.0118,0.028 0.002,0.0476 -0.0124,0.0522 -0.002,0.0129 -0.003,0.0268 -0.004,0.0398 -0.002,0.025 -0.005,0.0493 -0.005,0.0744 0.003,0.003 0.006,0.007 0.009,0.0119 0.002,0.003 0.005,0.006 0.006,0.009 0.0239,0.0565 0.0342,0.12386 0.0455,0.18396 0.005,0.0301 0.011,0.0603 0.016,0.0904 0.006,0.0333 -0.0115,0.0503 -0.0289,0.0475 0.002,0.005 0.003,0.0119 0.003,0.0191 0,0.0476 -7e-5,0.0956 -0.001,0.14314 -0.002,0.054 -0.006,0.10796 -0.0114,0.16175 -0.001,0.006 -0.001,0.0112 -0.002,0.017 -0.007,0.0574 -0.0649,0.0501 -0.0579,-0.007 0.001,-0.005 7.9e-4,-0.011 0.002,-0.016 0.005,-0.0525 0.008,-0.10491 0.0114,-0.15761 0.002,-0.047 0.001,-0.0941 0.001,-0.14108 4e-5,-0.0271 0.0127,-0.0417 0.0264,-0.0434 0.001,-1.7e-4 0.003,-8e-5 0.004,0 -0.002,-0.004 -0.003,-0.009 -0.004,-0.0134 -0.005,-0.0298 -0.0105,-0.0596 -0.0155,-0.0894 -0.008,-0.0428 -0.0162,-0.0856 -0.0274,-0.12764 -0.0125,-0.001 -0.0253,-0.0127 -0.03,-0.0367 -0.003,-0.0139 -0.004,-0.0283 -0.004,-0.0424 0,-0.0302 0.003,-0.0599 0.005,-0.0899 0.003,-0.0281 0.005,-0.0559 0.0103,-0.0837 -0.004,-0.002 -0.008,-0.004 -0.0114,-0.006 -0.012,-0.008 -0.023,-0.0155 -0.031,-0.0279 -0.008,-0.0141 -0.0121,-0.0294 -0.0129,-0.0455 -0.002,-0.0171 -0.004,-0.0353 -0.007,-0.0522 l -5.3e-4,5.2e-4 c -0.006,-0.0302 0.008,-0.0474 0.0233,-0.0486 z m -0.004,0.71469 c 8e-4,-5e-5 0.002,-4e-5 0.003,0 0.0167,7.9e-4 0.0302,0.0201 0.0207,0.0512 -0.005,0.0191 -0.003,0.008 -0.0108,0.0408 -0.003,0.014 -0.006,0.028 -0.01,0.0419 -0.0152,0.0549 -0.0347,0.10833 -0.0558,0.16123 -0.0249,0.0626 -0.0559,0.12218 -0.093,0.17828 -0.0319,0.0483 -0.0806,0.0162 -0.0486,-0.032 0.0351,-0.0527 0.0638,-0.10915 0.0873,-0.16795 0.0201,-0.0501 0.0387,-0.10087 0.0532,-0.15297 0.004,-0.014 0.007,-0.0283 0.0104,-0.0424 0.008,-0.0351 0.005,-0.0239 0.0114,-0.0439 h -5.3e-4 c 0.007,-0.0227 0.0207,-0.0334 0.0331,-0.0341 z" /></clipPath><linearGradient
       inkscape:collect="always"
       xlink:href="#linearGradient111"
       id="linearGradient112"
       x1="108.12964"
       y1="100.00287"
       x2="110.8296"
       y2="100.00287"
       gradientUnits="userSpaceOnUse" /></defs><g
     inkscape:label="Слой 1"
     inkscape:groupmode="layer"
     id="layer1"><g
       id="g2"
       transform="matrix(0.00184164,0.26455408,-0.26463285,-0.00291156,149.24616,74.99281)"><line
         x1="30"
         y1="100"
         x2="60"
         y2="100"
         stroke="#000000"
         stroke-width="3"
         id="line1-0" /><rect
         x="60"
         y="80"
         width="80"
         height="40"
         fill="none"
         stroke="#000000"
         stroke-width="3"
         id="rect1" /><line
         x1="140"
         y1="100"
         x2="170"
         y2="100"
         stroke="#000000"
         stroke-width="3"
         id="line2-9" /></g><path
       style="fill:none;stroke:#000000;stroke-width:0.79;stroke-dasharray:none"
       d="m 122.83812,82.638275 0.0276,-9.276131"
       id="path2" /><path
       style="fill:none;stroke:#000000;stroke-width:0.790001;stroke-dasharray:none"
       d="m 123.09595,119.67584 -0.0276,8.10572"
       id="path3" /><ellipse
       style="fill:none;stroke:#000000;stroke-width:0.790001;stroke-dasharray:none"
       id="path4"
       cx="123.08215"
       cy="127.78291"
       rx="0.42140698"
       ry="0.39756292" /><ellipse
       style="fill:none;stroke:#000000;stroke-width:0.790001;stroke-dasharray:none"
       id="path5"
       cx="122.86572"
       cy="73.065414"
       rx="0.39489058"
       ry="0.29672956" /><path
       style="fill:none;stroke:#000000;stroke-width:0.790001;stroke-dasharray:none"
       d="M 144.57825,73.065414 H 76.464582"
       id="path6" /><ellipse
       style="fill:none;stroke:#000000;stroke-width:0.790001;stroke-dasharray:none"
       id="path7"
       cx="147.30273"
       cy="73.065414"
       rx="2.7244787"
       ry="2.6426275" /><path
       style="fill:none;stroke:#000000;stroke-width:0.790001;stroke-dasharray:none"
       d="M 147.30273,127.7829 H 76.46458"
       id="path8" /><ellipse
       style="fill:#ffffff;fill-opacity:1;stroke:#000000;stroke-width:0.790001;stroke-dasharray:none"
       id="path9"
       cx="147.18294"
       cy="127.90707"
       rx="2.8442707"
       ry="2.778125"
       clip-path="url(#clipPath44)"
       transform="translate(0.57877604,-0.12416635)" /><g
       id="g110"
       transform="matrix(0.26458333,0,0,0.26458333,47.803857,46.607081)"><line
         x1="30"
         y1="100"
         x2="80"
         y2="100"
         stroke="#000000"
         stroke-width="3"
         id="line1" /><line
         x1="80"
         y1="70"
         x2="80"
         y2="130"
         stroke="#000000"
         stroke-width="3"
         id="line2" /><line
         x1="100"
         y1="70"
         x2="100"
         y2="130"
         stroke="#000000"
         stroke-width="3"
         id="line3" /><line
         x1="100"
         y1="100"
         x2="170"
         y2="100"
         stroke="#000000"
         stroke-width="3"
         id="line4" /></g><path
       style="fill:#ffffff;fill-opacity:1;stroke:#000000;stroke-width:0.790001;stroke-dasharray:none"
       d="m 76.46458,127.7829 -20.723225,-0.395"
       id="path110" /><ellipse
       style="fill:#ffffff;fill-opacity:1;stroke:#000000;stroke-width:0.790001;stroke-dasharray:none"
       id="path111"
       cx="56.004135"
       cy="127.5854"
       rx="2.6013894"
       ry="2.7498162" /><ellipse
       style="fill:#ffffff;fill-opacity:1;stroke:#000000;stroke-width:0.790001;stroke-dasharray:none"
       id="path111-4"
       cx="55.741356"
       cy="73.065414"
       rx="2.6013894"
       ry="2.7498162" /><text
       xml:space="preserve"
       style="font-size:10.9283px;text-align:start;writing-mode:lr-tb;direction:ltr;text-anchor:start;fill:none;fill-opacity:1;stroke:#000000;stroke-width:1.11239;stroke-dasharray:none;stroke-opacity:1"
       x="129.3808"
       y="87.988266"
       id="text111"
       transform="scale(0.83660679,1.1953047)"><tspan
         sodipodi:role="line"
         id="tspan111"
         style="font-size:10.9283px;fill:none;stroke:#000000;stroke-width:1.11239;stroke-opacity:1"
         x="129.3808"
         y="87.988266">R</tspan></text><text
       xml:space="preserve"
       style="font-size:7.7611px;text-align:start;writing-mode:lr-tb;direction:ltr;text-anchor:start;fill:none;fill-opacity:1;stroke:#000000;stroke-width:0.790001;stroke-dasharray:none;stroke-opacity:1"
       x="53.088638"
       y="103.14677"
       id="text112"><tspan
         sodipodi:role="line"
         id="tspan112"
         style="stroke-width:0.79"
         x="53.088638"
         y="103.14677">V</tspan></text><text
       xml:space="preserve"
       style="font-style:normal;font-variant:normal;font-weight:normal;font-stretch:normal;font-size:2.14667px;font-family:Garamond;-inkscape-font-specification:Garamond;text-align:start;writing-mode:lr-tb;direction:ltr;text-anchor:start;fill:none;fill-opacity:1;stroke:#000000;stroke-width:0.218509;stroke-dasharray:none;stroke-opacity:1"
       x="56.960224"
       y="106.76773"
       id="text113"
       transform="scale(1.032296,0.96871441)"><tspan
         sodipodi:role="line"
         id="tspan113"
         style="font-style:normal;font-variant:normal;font-weight:normal;font-stretch:normal;font-family:Garamond;-inkscape-font-specification:Garamond;stroke-width:0.218509"
         x="56.960224"
         y="106.76773">i</tspan></text><text
       xml:space="preserve"
       style="font-style:normal;font-variant:normal;font-weight:normal;font-stretch:normal;font-size:7.76111px;font-family:Garamond;-inkscape-font-specification:Garamond;text-align:start;writing-mode:lr-tb;direction:ltr;text-anchor:start;fill:none;fill-opacity:1;stroke:#000000;stroke-width:0.790001;stroke-dasharray:none;stroke-opacity:1"
       x="147.76172"
       y="98.821877"
       id="text114"><tspan
         sodipodi:role="line"
         id="tspan114"
         style="font-size:7.76111px;stroke-width:0.79"
         x="147.76172"
         y="98.821877">V</tspan></text><text
       xml:space="preserve"
       style="font-style:normal;font-variant:normal;font-weight:normal;font-stretch:normal;font-size:4.50721px;font-family:Garamond;-inkscape-font-specification:Garamond;text-align:start;writing-mode:lr-tb;direction:ltr;text-anchor:start;fill:none;fill-opacity:1;stroke:#000000;stroke-width:0.458788;stroke-dasharray:none;stroke-opacity:1"
       x="155.18553"
       y="98.27401"
       id="text115"
       transform="scale(0.99419648,1.0058374)"><tspan
         sodipodi:role="line"
         id="tspan115"
         style="stroke-width:0.458787"
         x="155.18553"
         y="98.27401">0</tspan></text><g
       id="g115"
       transform="matrix(0.26458333,0,0,0.26458333,58.165468,217.65901)"><line
         x1="30"
         y1="100"
         x2="60"
         y2="100"
         stroke="#000000"
         stroke-width="3"
         id="line1-5" /><circle
         cx="100"
         cy="100"
         r="40"
         fill="none"
         stroke="#000000"
         stroke-width="3"
         id="circle1" /><line
         x1="72"
         y1="72"
         x2="128"
         y2="128"
         stroke="#000000"
         stroke-width="3"
         id="line2-5" /><line
         x1="128"
         y1="72"
         x2="72"
         y2="128"
         stroke="#000000"
         stroke-width="3"
         id="line3-1" /><line
         x1="140"
         y1="100"
         x2="170"
         y2="100"
         stroke="#000000"
         stroke-width="3"
         id="line4-7" /></g><path
       style="fill:none;fill-opacity:1;stroke:#000000;stroke-width:0.790001;stroke-dasharray:none;stroke-opacity:1"
       d="m 103.14463,244.11734 54.15016,0.39688 v -46.20901 h -32.14687"
       id="path115" /><g
       id="g116"
       transform="matrix(0.26458333,0,0,0.26458333,106.62709,171.84688)"><line
         x1="0"
         y1="100"
         x2="30"
         y2="100"
         stroke="#000000"
         id="line1-1" /><line
         x1="30"
         y1="60"
         x2="30"
         y2="140"
         stroke="#000000"
         id="line2-1" /><line
         x1="40"
         y1="70"
         x2="40"
         y2="130"
         stroke="#000000"
         id="line3-5" /><line
         x1="40"
         y1="100"
         x2="70"
         y2="100"
         stroke="#000000"
         id="line4-2" /><text
         x="15"
         y="75"
         id="text4">+</text><text
         x="45"
         y="75"
         id="text5">|</text></g><path
       style="fill:none;fill-opacity:1;stroke:#000000;stroke-width:0.790001;stroke-dasharray:none;stroke-opacity:1"
       d="M 106.62709,198.30521 38.353177,198.17292"
       id="path116" /><g
       id="g117"
       transform="matrix(-0.26456844,-0.00280713,0.00280713,-0.26456844,59.237939,224.85433)"><line
         x1="0"
         y1="100"
         x2="200"
         y2="100"
         stroke="#000000"
         id="line1-7" /><polygon
         points="80,125 140,100 80,75 "
         fill="none"
         stroke="#000000"
         stroke-width="1"
         id="polygon1" /><line
         x1="140"
         y1="75"
         x2="140"
         y2="125"
         stroke="#000000"
         id="line2-6" /></g><path
       style="fill:none;fill-opacity:1;stroke:#000000;stroke-width:0.790001;stroke-dasharray:none;stroke-opacity:1"
       d="m 6.6049638,197.83606 -0.0014,45.88441 59.4994052,0.39687"
       id="path117" /></g></svg>
